<svg width="42" height="48" viewBox="0 0 42 48" fill="none" xmlns="http://www.w3.org/2000/svg">
<g opacity="0.5" clip-path="url(#clip0_469_445)">
<path d="M-0.5 42.9888H41.5V48H-0.5V42.9888Z" fill="#AAAAAA"/>
<path d="M9.16874 11.3127L2.10938 32.22H7.22106L12.0169 17.4418L14.4204 24.8304H11.3113L10.0692 29.0476H15.7924L16.8239 32.22H22.0812L15.0219 11.3127H9.16874ZM30.1127 11.3127H22.7745V32.22H27.8492V15.53H29.8943C32.2676 15.53 33.6183 16.6468 33.6183 18.6659C33.6183 20.685 32.2676 21.8018 29.8943 21.8018H29.5662V26.019H30.1139C35.5907 26.019 38.8039 23.2978 38.8039 18.6659C38.8039 14.034 35.5907 11.3127 30.1139 11.3127" fill="#AAAAAA"/>
</g>
<defs>
<clipPath id="clip0_469_445">
<rect width="42" height="48" fill="white"/>
</clipPath>
</defs>
</svg>
