<svg width="111" height="27" viewBox="0 0 111 27" fill="none" xmlns="http://www.w3.org/2000/svg">
<g opacity="0.5" clip-path="url(#clip0_469_519)">
<path d="M105.224 16.4262L102.185 15.7575C100.157 15.3117 99.3059 14.5338 99.3059 13.4011C99.3059 11.9546 100.694 10.9766 102.773 10.9766C104.852 10.9766 106.259 12.0774 106.47 13.8287H110.078C109.956 10.4944 107.129 8.15625 102.773 8.15625C98.4168 8.15625 95.5566 10.3716 95.5519 13.6104C95.5519 16.2396 97.3113 17.8909 100.868 18.6824L103.907 19.3693C105.953 19.8151 106.644 20.502 106.644 21.671C106.644 23.1494 105.219 24.0774 102.909 24.0774C100.6 24.0774 99.2306 23.1494 98.8731 21.2571H95.0674C95.4249 24.6915 98.2333 26.9114 102.909 26.9114C107.322 26.9114 110.502 24.646 110.502 21.3435C110.502 18.7279 109.048 17.2859 105.224 16.4262Z" fill="#AAAAAA"/>
<path d="M81.1705 13.0189H81.2599L85.1926 26.5656H89.1912L94.3093 8.47913H90.5036L87.0884 22.7126H86.999L83.0898 8.47913H79.3923L75.4973 22.7126H75.4267L72.0115 8.47913H68.1729L73.3098 26.5656H77.2755L81.1705 13.0189Z" fill="#AAAAAA"/>
<path d="M67.4245 18.4503V17.1766C67.4245 11.6952 64.1927 8.15161 58.9993 8.15161C53.8059 8.15161 50.3389 11.9363 50.3389 17.6088C50.3389 23.2813 53.6647 26.9113 59.1592 26.9113C63.4447 26.9113 66.6812 24.5595 67.2128 21.257V21.2524H63.567C63.0543 22.8355 61.436 23.8999 59.2486 23.8999C56.1721 23.8999 54.2151 21.8211 54.2151 18.6732V18.4503H67.4245ZM59.004 11.1448C61.6901 11.1448 63.5012 13.0917 63.5906 15.8575H54.2386C54.4315 13.1236 56.3179 11.1448 59.004 11.1448Z" fill="#AAAAAA"/>
<path d="M30.7881 8.2926L44.0869 26.5701H47.6762V1.76038H43.7999V20.0515H43.6588L30.3601 1.76038H26.752V26.5655H30.6282V8.2926H30.7881Z" fill="#AAAAAA"/>
<path d="M11.2887 6.37756C11.2699 6.2138 11.2558 6.04549 11.2558 5.86808C11.2558 4.57165 11.8391 3.18423 12.874 2.05155C13.3915 1.47839 14.05 1.00076 14.8498 0.618651C15.6448 0.241092 16.3974 0.0363912 17.1078 0C17.1313 0.177407 17.1407 0.354814 17.1407 0.53677C17.1407 1.88779 16.6326 3.14784 15.6118 4.31691C14.384 5.70432 12.9022 6.50493 11.2887 6.37756ZM6.69741 6.46399C5.46491 6.48218 4.31709 6.79151 3.25865 7.40106C2.1955 8.01061 1.34875 8.83851 0.71368 9.88931C-0.09544 11.1948 -0.5 12.7551 -0.5 14.5656C-0.5 16.1441 -0.198932 17.7771 0.403204 19.4647C0.963002 21.025 1.67804 22.3942 2.54361 23.5724C3.35273 24.6732 4.02543 25.4556 4.56641 25.9105C5.40846 26.6702 6.25521 27.0341 7.10667 26.9977C7.66647 26.9795 8.39562 26.793 9.30352 26.4382C10.2067 26.0834 11.0535 25.9105 11.8438 25.9105C12.6341 25.9105 13.4197 26.0834 14.3135 26.4382C15.2073 26.7976 15.9741 26.9704 16.6091 26.9704C17.4935 26.9477 18.3215 26.5974 19.0929 25.9105C19.5916 25.492 20.2361 24.7369 21.0264 23.6497C21.605 22.8491 22.1036 21.9803 22.527 21.0387C22.701 20.6384 22.8657 20.2199 23.0162 19.7968C22.3012 19.5057 21.6567 19.0963 21.0828 18.5686C19.8127 17.4314 19.1682 15.9985 19.1494 14.2745C19.1259 12.0637 20.1655 10.3397 22.2683 9.1069C21.0969 7.49204 19.3281 6.59591 16.9808 6.41395C16.1152 6.34117 15.0567 6.52312 13.8007 6.95982C12.4741 7.42836 11.6933 7.6649 11.4627 7.6649C11.157 7.6649 10.4513 7.4602 9.35527 7.06444C8.2592 6.66414 7.3701 6.46399 6.69741 6.46399Z" fill="#AAAAAA"/>
</g>
<defs>
<clipPath id="clip0_469_519">
<rect width="111" height="27" fill="white"/>
</clipPath>
</defs>
</svg>
