<svg width="102" height="33" viewBox="0 0 102 33" fill="none" xmlns="http://www.w3.org/2000/svg">
<g opacity="0.5" clip-path="url(#clip0_469_482)">
<path fill-rule="evenodd" clip-rule="evenodd" d="M-0.5 0.319687H6.38269C10.2137 0.319687 12.2116 2.17594 12.2116 4.46531C12.2116 6.04312 11.2675 7.11562 9.95028 7.6725V7.71375C11.6298 8.28094 12.5738 9.52875 12.5738 11.1272C12.5738 13.4062 10.7077 15.4069 6.65712 15.4069H-0.5V0.319687ZM6.16315 6.30094C7.30478 6.30094 7.82071 5.75437 7.82071 5.14594C7.82071 4.5375 7.30478 3.97031 6.16315 3.97031H4.14335V6.29063H6.16315V6.30094ZM6.22901 11.7562C7.4365 11.7562 8.0183 11.2097 8.0183 10.5084C8.0183 9.80719 7.41455 9.26062 6.25097 9.26062H4.14335V11.7562H6.22901ZM13.5618 9.27094V0.319687H18.249V9.22969C18.249 10.9106 19.1272 11.7975 20.6311 11.7975C22.135 11.7975 23.079 10.9106 23.079 9.20906V0.319687H27.7882V9.27094C27.7882 13.0659 25.0768 15.7987 20.6311 15.7987C16.1853 15.7987 13.5618 13.0659 13.5618 9.27094ZM39.7314 1.05187V4.92937C38.7215 4.25906 36.9981 3.795 35.604 3.795C34.3306 3.795 33.6939 4.17656 33.6939 4.68188C33.6939 5.18719 34.4074 5.445 35.6698 5.87812C37.8214 6.58969 40.7413 7.53844 40.7413 10.7456C40.7413 13.6125 38.4361 15.7369 34.3965 15.7369C32.3108 15.7369 30.4008 15.1697 29.2152 14.4272V10.3434C30.3788 11.2303 32.1352 11.9419 33.8366 11.9419C35.2746 11.9419 35.9443 11.4366 35.9443 10.8694C35.9443 10.1372 34.8465 9.8175 33.5402 9.37406C31.8168 8.78625 29.0945 7.73437 29.0945 4.80562C29.0835 2.16562 31.3009 0 35.2527 0C36.9981 0 38.5678 0.422812 39.7314 1.05187ZM41.9378 0.319687H46.6251V15.4069H41.9378V0.319687ZM63.2884 15.4172H58.8207L53.0357 7.32188H53.0138V15.4172H48.568V0.319687H53.0357L58.8207 8.28094H58.8427V0.319687H63.2884V15.4172ZM65.2314 0.319687H76.3293V4.23844H69.9186V6.05344H75.6817V9.61125H69.9186V11.4881H76.3293V15.4069H65.2314V0.319687ZM88.0859 1.05187V4.92937C87.076 4.25906 85.3526 3.795 83.9585 3.795C82.6851 3.795 82.0484 4.17656 82.0484 4.68188C82.0484 5.18719 82.7619 5.445 84.0243 5.87812C86.1758 6.58969 89.0958 7.53844 89.0958 10.7456C89.0958 13.6125 86.7906 15.7369 82.751 15.7369C80.6653 15.7369 78.7553 15.1697 77.5697 14.4272V10.3434C78.7333 11.2303 80.4897 11.9419 82.1911 11.9419C83.6291 11.9419 84.2988 11.4366 84.2988 10.8694C84.2988 10.1372 83.201 9.8175 81.8947 9.37406C80.1713 8.78625 77.449 7.73437 77.449 4.80562C77.438 2.16562 79.6554 0 83.6072 0C85.3526 0 86.9223 0.422812 88.0859 1.05187ZM100.49 1.05187V4.92937C99.4802 4.25906 97.7568 3.795 96.3627 3.795C95.0893 3.795 94.4527 4.17656 94.4527 4.68188C94.4527 5.18719 95.1662 5.445 96.4285 5.87812C98.5801 6.58969 101.5 7.53844 101.5 10.7456C101.5 13.6125 99.1948 15.7369 95.1552 15.7369C93.0695 15.7369 91.1595 15.1697 89.974 14.4272V10.3434C91.1375 11.2303 92.8939 11.9419 94.5954 11.9419C96.0334 11.9419 96.703 11.4366 96.703 10.8694C96.703 10.1372 95.6052 9.8175 94.299 9.37406C92.5755 8.78625 89.8532 7.73437 89.8532 4.80562C89.8422 2.16562 92.0596 0 96.0114 0C97.7568 0 99.3265 0.422812 100.49 1.05187ZM9.78562 32.6803H14.4729V17.5931H9.78562V32.6803ZM31.1362 17.5931H26.6795V25.5544H26.6576L20.8726 17.5931H16.4049V32.6803H20.8616V24.585H20.8836L26.6685 32.6803H31.1362V17.5931ZM38.6885 17.2631C34.7368 17.2631 32.5194 19.4287 32.5194 22.0688C32.5194 24.9975 35.2527 26.0494 36.9651 26.6372C38.2824 27.0806 39.3691 27.4003 39.3691 28.1325C39.3691 28.6997 38.6995 29.205 37.2615 29.205C35.5601 29.205 33.8037 28.4934 32.6401 27.6066V31.6903C33.8257 32.4328 35.7357 33 37.8214 33C41.861 33 44.1662 30.8756 44.1662 28.0088C44.1662 24.8016 41.2462 23.8425 39.0947 23.1412C37.8214 22.7184 37.1188 22.4709 37.1188 21.945C37.1188 21.4191 37.7665 21.0581 39.0288 21.0581C40.4229 21.0581 42.1464 21.5222 43.1563 22.1925V18.315C41.9927 17.6859 40.4229 17.2631 38.6885 17.2631ZM45.2639 32.6803H49.9511V17.5931H45.2639V32.6803ZM56.5704 28.6997H57.4705C59.8965 28.6997 61.4662 27.4106 61.4662 25.1419C61.4662 22.8731 59.8965 21.5634 57.4705 21.5634H56.5704V28.6997ZM66.2084 25.1419C66.2084 29.6897 62.5529 32.6803 57.3059 32.6803H51.8831V17.5931H57.3059C62.5529 17.5931 66.2084 20.6044 66.2084 25.1419ZM67.4707 32.6803H78.5687V28.7616H72.158V26.8847H77.921V23.3269H72.158V21.5119H78.5687V17.5931H67.4707V32.6803ZM85.9453 24.7191C87.1309 24.7191 88.0529 24.1931 88.0529 23.1412C88.0529 22.0894 87.1309 21.5634 85.9234 21.5634H84.9354V24.7191H85.9453ZM93.6184 32.6803H88.0969L85.0452 28.0191H84.9354V32.6803H80.2482V17.5931H85.9673C89.9849 17.5931 92.7841 19.2741 92.7841 22.8422C92.7841 24.255 92.1145 26.3175 89.4471 27.3694L93.6184 32.6803Z" fill="#AAAAAA"/>
</g>
<defs>
<clipPath id="clip0_469_482">
<rect width="102" height="33" fill="white"/>
</clipPath>
</defs>
</svg>
