<svg width="167" height="31" viewBox="0 0 167 31" fill="none" xmlns="http://www.w3.org/2000/svg">
<g opacity="0.5" clip-path="url(#clip0_469_533)">
<path d="M-0.255222 21.0429L1.85599 20.7246V2.28665L-0.5 1.9972L-0.377611 0H14.3703L14.0031 5.58637L11.0658 5.49953L10.8822 1.9972H6.3232V10.3044H8.31202L8.77098 8.39402L10.821 8.45191V14.183H8.77098L8.28142 12.2148H6.2926V21.014H10.8822L11.3106 17.1933L14.4009 17.2801L14.6457 23.098H-0.347014L-0.255222 21.0429Z" fill="#AAAAAA"/>
<path d="M16.0225 23.1269L16.1142 21.4192L17.7665 21.1008V9.46493L15.8389 9.29126V7.55457L20.6732 6.88883L21.0404 7.87296V8.53869C22.2031 7.3809 23.6106 6.68622 25.4158 6.68622C28.0472 6.68622 30.0054 8.19135 30.0054 11.1727V21.0718L31.7495 21.3902L31.6577 23.098H25.9054V12.041C25.9054 10.4491 25.2934 9.55176 23.7636 9.55176C23.2434 9.55176 22.8762 9.6386 22.4785 9.78332C22.2337 9.98594 21.9889 10.2754 21.7747 10.5359V21.1297L23.5188 21.4481L23.3964 23.1559H16.0225V23.1269Z" fill="#AAAAAA"/>
<path d="M108.458 23.127L108.52 21.4192L110.172 21.1008V9.46499L108.244 9.29132V7.55463L113.079 6.88889L113.446 7.87302V8.53875C114.608 7.38096 116.016 6.68628 117.821 6.68628C120.452 6.68628 122.411 8.19141 122.411 11.1727V21.0719L124.155 21.3903L124.063 23.098H118.341V12.0411C118.341 10.4491 117.729 9.55183 116.199 9.55183C115.679 9.55183 115.312 9.63866 114.914 9.78338C114.67 9.986 114.425 10.2754 114.211 10.536V21.1298L115.955 21.4482L115.832 23.1559H108.458V23.127Z" fill="#AAAAAA"/>
<path d="M40.8673 22.8086C40.1942 23.0691 39.0009 23.3585 37.4404 23.3585C35.3904 23.3585 33.4934 22.4902 33.4934 19.6536V9.46498L31.5352 9.17553L31.6269 7.14939L33.83 7.06256L34.7785 3.96545L37.5934 3.84967V7.17834H40.6226L40.4084 9.20448L37.624 9.49393V19.6825C37.624 20.5219 38.1136 21.0719 39.0315 21.0719H40.6837L40.8673 22.8086Z" fill="#AAAAAA"/>
<path d="M155.395 23.127L155.456 21.4482L157.017 21.1009V9.46503L155.181 9.29136V7.55466L160.199 6.88893L160.535 8.01778V8.39407C161.851 7.46783 163.626 6.85999 165.767 6.85999L166.502 7.46783L165.982 11.8675L163.228 11.7806L162.952 9.43608C162.31 9.52292 161.698 9.69659 161.178 10.0439V21.1298L162.922 21.4772L162.799 23.156H155.395V23.127Z" fill="#AAAAAA"/>
<path d="M83.3369 23.127L83.4287 21.4482L84.9892 21.1009V9.46503L83.1533 9.29136V7.55466L88.1713 6.88893L88.5078 8.01778V8.39407C89.8235 7.46783 91.5982 6.85999 93.74 6.85999L94.4743 7.46783L93.893 11.8675L91.1392 11.7806L90.8638 9.43608C90.2213 9.52292 89.6093 9.69659 89.0892 10.0439V21.1298L90.8332 21.4772L90.7109 23.156H83.3369V23.127Z" fill="#AAAAAA"/>
<path d="M42.0918 23.127L42.1836 21.4482L43.744 21.1009V9.46503L41.9082 9.29136V7.55466L46.9262 6.88893L47.2627 8.01778V8.39407C48.5784 7.46783 50.3531 6.85999 52.4643 6.85999L53.1986 7.46783L52.6784 11.8675L49.9247 11.7806L49.6493 9.43608C49.0068 9.52292 48.3948 9.69659 47.8747 10.0439V21.1298L49.6187 21.4772L49.4963 23.156H42.0918V23.127Z" fill="#AAAAAA"/>
<path d="M57.9431 16.0355C57.9431 18.8142 59.2282 20.9561 61.7678 20.9561C63.0835 20.9561 64.1238 20.6956 65.3477 20.1457L66.0514 21.6798C64.7969 22.6349 62.9611 23.3586 60.6663 23.3586C56.1991 23.3586 53.6289 19.7115 53.6289 15.0224C53.6289 11.028 55.4953 6.65735 60.6051 6.65735C65.0723 6.65735 66.7551 10.5649 66.7551 14.9066L66.3268 15.9487L57.9431 16.0355ZM57.8819 14.183L63.0223 13.9515C62.9305 12.0122 62.5021 8.944 60.4827 8.944C59.9931 8.944 59.6566 9.03083 59.0446 9.32028C58.2185 10.6517 57.8819 13.0542 57.8819 14.183Z" fill="#AAAAAA"/>
<path d="M129.051 16.0355C129.051 18.8142 130.336 20.9561 132.875 20.9561C134.191 20.9561 135.231 20.6956 136.455 20.1457L137.159 21.6798C135.904 22.6349 134.069 23.3586 131.774 23.3586C127.307 23.3586 124.736 19.7115 124.736 15.0224C124.736 11.028 126.603 6.65735 131.713 6.65735C136.18 6.65735 137.863 10.5649 137.863 14.9066L137.434 15.9487L129.051 16.0355ZM128.989 14.183L134.13 13.9515C134.038 12.0122 133.61 8.944 131.59 8.944C131.101 8.944 130.764 9.03083 130.152 9.32028C129.326 10.6517 128.989 13.0542 128.989 14.183Z" fill="#AAAAAA"/>
<path d="M99.1853 16.0355C99.1853 18.8142 100.47 20.9561 103.01 20.9561C104.326 20.9561 105.366 20.6956 106.59 20.1457L107.294 21.6798C106.039 22.6349 104.203 23.3586 101.908 23.3586C97.4413 23.3586 94.8711 19.7115 94.8711 15.0224C94.8711 11.028 96.7375 6.65735 101.847 6.65735C106.314 6.65735 107.997 10.5649 107.997 14.9066L107.569 15.9487L99.1853 16.0355ZM99.1241 14.183L104.264 13.9515C104.173 12.0122 103.744 8.944 101.725 8.944C101.235 8.944 100.899 9.03083 100.287 9.32028C99.4607 10.6517 99.0935 13.0542 99.1241 14.183Z" fill="#AAAAAA"/>
<path d="M149.425 23.127L148.997 21.7376C147.865 22.7507 146.763 23.3585 145.05 23.3585C142.418 23.3585 140.062 22.1139 140.062 18.6694V9.05973L138.135 8.88606V7.35198L143.703 6.74414L144.132 8.1335V18.2063C144.132 19.972 144.897 20.8982 146.396 20.8982C146.824 20.8982 147.375 20.8403 147.865 20.6666C148.14 20.4061 148.415 20.0877 148.63 19.7694V9.05973L146.641 8.88606V7.35198L152.271 6.74414L152.699 8.1335V21.1008L154.443 21.4192L154.229 23.127H149.425Z" fill="#AAAAAA"/>
<path d="M75.1057 21.043C74.2184 21.043 73.5146 20.8982 72.9639 20.6088V10.3912C73.2086 10.0439 73.484 9.72549 73.7594 9.43605C74.2795 9.26238 74.7385 9.20449 75.2893 9.20449C77.5841 9.20449 77.9818 11.4043 77.9818 15.3408C77.9818 19.2773 77.3699 20.1746 77.2169 20.6088C76.5743 20.8982 75.9012 21.043 75.1057 21.043ZM81.9595 14.6461C81.9595 9.75444 80.4296 6.68628 76.6049 6.68628C74.0654 6.68628 72.8721 8.07563 72.3825 8.65453V8.10458L71.9542 6.71522L66.9668 7.38096V9.05976L68.8944 9.29132V29.0318L67.2422 29.3501L67.1504 31H74.5243L74.6467 29.3501L72.9027 29.0318V22.7796C73.6064 23.1559 74.5855 23.3875 75.6564 23.3875C81.8983 23.3875 81.9595 17.3959 81.9595 14.6461Z" fill="#AAAAAA"/>
</g>
<defs>
<clipPath id="clip0_469_533">
<rect width="167" height="31" fill="white"/>
</clipPath>
</defs>
</svg>
