<svg width="24" height="24" viewBox="0 0 24 24" fill="none" xmlns="http://www.w3.org/2000/svg">
<path fill-rule="evenodd" clip-rule="evenodd" d="M11.9541 24H11.9647H11.9609H11.9541ZM12.0387 24H12.035H12.0456H12.0387ZM11.9175 24H11.9291H11.9225H11.9175ZM12.0775 24H12.0709H12.0825H12.0775ZM11.8822 23.9997H11.89H11.8837H11.8822ZM12.1163 23.9997H12.11H12.1178H12.1163ZM12.155 23.9994H12.1522H12.1625H12.1547H12.155ZM11.8372 23.9994H11.8475H11.8447H11.8369H11.8372ZM12.1938 23.9988H12.1875H12.2003H12.1938ZM11.7997 23.9988H11.8125H11.8062H11.7997ZM12.2322 23.9981H12.2238H12.2356H12.2322ZM11.7641 23.9981H11.7759H11.7675H11.7641ZM11.72 23.9972H11.7306H11.7288H11.72ZM12.2706 23.9972H12.2688H12.2794H12.2706ZM11.6816 23.9959H11.6959H11.69H11.6812H11.6816ZM12.3091 23.9959H12.3031H12.3175H12.3088H12.3091ZM12.3475 23.995H12.3381H12.3528H12.3475ZM11.6459 23.995H11.6606H11.6512H11.6459ZM11.6122 23.9941H11.6228H11.6128H11.6038H11.6122ZM12.3859 23.9941H12.3759H12.3866H12.395H12.3859ZM12.4244 23.9928H12.4191L12.4353 23.9925H12.4244V23.9928ZM11.5631 23.9925L11.5794 23.9931H11.5741L11.5631 23.9925ZM11.5281 23.9912L11.545 23.9919H11.5356L11.5281 23.9912ZM12.4628 23.9912H12.4534H12.4703H12.4628ZM11.4937 23.9897L11.5103 23.9903L11.4972 23.9897H11.4934H11.4937ZM12.5013 23.9897L12.4881 23.9903L12.5047 23.9897H12.5009H12.5013ZM11.4453 23.9875L11.4631 23.9884H11.4587L11.4453 23.9875ZM12.5397 23.9881H12.5353L12.5531 23.9875L12.5397 23.9881ZM11.4106 23.9859L11.4291 23.9869H11.4203L11.4106 23.9859ZM12.5778 23.9866H12.5691L12.5875 23.9859L12.5778 23.9866ZM11.3763 23.9844L11.395 23.9853L11.3819 23.9847H11.3763V23.9844ZM12.6159 23.9847L12.6028 23.9853L12.6216 23.9844H12.6159V23.9847ZM12.6544 23.9828L12.6375 23.9837L12.6525 23.9828L12.6703 23.9819L12.6544 23.9828ZM11.3453 23.9828L11.3603 23.9837L11.3434 23.9828L11.3275 23.9819L11.3453 23.9828ZM12.6925 23.9806H12.685L12.7041 23.98L12.6925 23.9806ZM11.2934 23.98L11.3125 23.9809H11.305L11.2934 23.98ZM11.2597 23.9781L11.2788 23.9794L11.2669 23.9788L11.2597 23.9781ZM12.7306 23.9788L12.7188 23.9794L12.7378 23.9781L12.7306 23.9788ZM11.2272 23.9762L11.2444 23.9772L11.2284 23.9762L11.2125 23.9753L11.2275 23.9762H11.2272ZM12.7688 23.9762L12.7528 23.9772L12.77 23.9762L12.785 23.9753L12.7691 23.9762H12.7688ZM12.8069 23.9737H12.8013L12.8194 23.9728L12.8069 23.9737ZM11.1778 23.9728L11.1959 23.9741H11.1903L11.1778 23.9728ZM11.1441 23.9706L11.1619 23.9719L11.1522 23.9713L11.1441 23.9706ZM12.845 23.9713L12.8353 23.9719L12.8531 23.9706L12.845 23.9713ZM11.1103 23.9681L11.1266 23.9694L11.1138 23.9684H11.11L11.1103 23.9681ZM12.8831 23.9681L12.8703 23.9691L12.8866 23.9678H12.8828L12.8831 23.9681ZM11.065 23.9644L11.0794 23.9653H11.0759L11.065 23.9644ZM12.9213 23.9653H12.9178L12.9322 23.9644L12.9213 23.9653ZM12.9594 23.9625L12.9525 23.9631L12.9672 23.9619L12.9594 23.9625ZM11.03 23.9619L11.0447 23.9631L11.0378 23.9625L11.03 23.9619ZM10.9959 23.9591L11.0084 23.96L10.9997 23.9594H10.9959V23.9591ZM12.9972 23.9594L12.9884 23.96L13.0009 23.9591H12.9972V23.9594ZM10.9584 23.9559H10.9622H10.9616H10.9584ZM13.035 23.9559H13.0344H13.0381H13.035ZM13.0728 23.9525H13.0694L13.0778 23.9522L13.0728 23.9528V23.9525ZM10.9181 23.9519L10.9266 23.9525H10.9231L10.9181 23.9519ZM10.8831 23.9487L10.8894 23.9494H10.8853L10.8828 23.9487H10.8831ZM13.1106 23.9487H13.1066H13.1128H13.1103H13.1106ZM10.1231 23.8538C4.39125 22.9528 0 17.9853 0 12C0 5.37719 5.37687 0 12 0C18.6231 0 24 5.37687 24 12C24 17.9853 19.6087 22.9528 13.875 23.8541V15.4688H16.6709L17.2031 12H13.875V9.74906C13.875 8.8 14.34 7.875 15.8306 7.875H17.3438V4.92188C17.3438 4.92188 15.9706 4.6875 14.6575 4.6875C11.9166 4.6875 10.125 6.34875 10.125 9.35625V12H7.07812V15.4688H10.125V23.8541L10.1231 23.8538Z" fill="black"/>
</svg>
