<svg width="248" height="124" viewBox="0 0 248 124" fill="none" xmlns="http://www.w3.org/2000/svg">
<path d="M247.6 61.6613C247.595 61.6664 247.586 61.664 247.584 61.6571C246.803 59.385 244.462 60.015 242.714 60.3488C238.353 61.1891 234.037 62.2227 229.706 63.2042C209.221 67.8591 188.691 72.2537 167.55 72.5065C166.86 72.5173 166.623 71.546 167.178 71.1359C167.385 70.9837 167.577 70.8462 167.774 70.7145C176.809 64.736 183.264 57.2258 184.912 45.9307C186.179 37.2455 184.793 29.5494 179.224 22.8274C174.669 17.3322 169.153 12.8633 162.981 9.22713C162.444 8.91482 150.599 3.50893 148.005 2.75791C135.727 -0.774135 123.293 -0.551058 110.8 1.39714C108.586 1.73919 106.327 1.81355 104.128 2.20765C102.324 2.53483 100.602 3.36765 98.7979 3.59817C93.9972 4.21534 89.1444 4.49047 84.3512 5.15226C71.7159 6.91457 59.1029 8.78098 46.4899 10.6771C45.1332 10.8779 43.1951 10.9746 43.3665 12.8856C43.4187 13.4284 45.5209 14.1794 46.6763 14.1646C61.2125 14.0307 75.7487 13.7779 90.2849 13.5623C92.5377 13.5289 94.0183 16.1491 92.6829 17.9637C92.562 18.1279 92.439 18.2891 92.3125 18.4476C88.6598 23.0504 84.8208 27.512 81.2501 32.1743C72.9309 43.0381 65.6628 54.705 56.0093 64.5501C54.8091 65.777 53.7431 66.015 52.2522 66.0001C37.716 65.8588 23.1873 65.7175 8.65854 65.6878C6.25821 65.6878 3.80569 66.067 1.48735 66.6768C1.46121 66.6837 1.43523 66.6912 1.40943 66.6993C-0.463236 67.29 -0.429238 70.6173 1.27117 71.5993C2.19552 72.1347 3.43297 72.1942 4.55114 72.3429C15.4272 73.7557 26.2958 75.2578 37.1942 76.4996C52.6772 78.2619 68.1824 79.7714 83.6728 81.4965C86.6829 81.8352 89.6662 82.4266 92.9249 83.0345C94.2246 83.2769 94.8798 84.9434 93.9003 85.8316C88.2126 90.9549 82.5397 96.1006 76.7849 101.15C73.162 104.34 69.3901 107.359 65.7001 110.474C62.6512 113.054 62.2189 115.917 64.3359 119.204C64.731 119.814 65.0963 120.438 65.4765 121.055C67.4445 124.245 70.5828 124.491 73.0129 121.598C73.9895 120.431 74.7274 119.04 75.7636 117.925C85.4172 107.53 95.0781 97.149 104.843 86.8578C105.656 85.9952 107.192 85.3929 108.399 85.3929C113.401 85.3929 118.411 85.6383 123.413 85.8762C124.143 85.9134 125.015 86.2183 125.545 86.7016C132.224 92.7544 138.843 98.8816 145.5 104.964C152.105 110.995 158.702 117.04 165.404 122.966C165.451 123.009 165.502 123.049 165.554 123.087C166.727 123.935 168.248 122.213 167.864 120.817C167.826 120.669 167.662 120.565 167.565 120.438C159.157 109.232 150.741 98.0265 142.339 86.7983C141.793 86.0764 142.594 85.0531 143.497 84.99C144.796 84.8992 146.011 84.8168 147.207 84.6419C159.269 82.8647 171.3 80.8496 183.391 79.2955C198.472 77.3547 213.433 74.9306 227.991 70.4096C233.455 68.7068 238.994 67.2345 244.428 65.435C246.05 64.8933 248.406 64.0481 247.617 61.6655C247.614 61.6586 247.605 61.6561 247.6 61.6613ZM134.054 66.5801C134.052 66.5757 134.047 66.5733 134.042 66.5743C130.364 67.3065 126.694 68.0388 123.023 68.7775C122.731 68.8364 122.434 68.6881 122.306 68.4182C122.197 68.1869 122.24 67.9145 122.409 67.7228C124.108 65.801 125.767 63.8453 127.52 61.9699C133.29 55.7832 139.067 49.6114 144.896 43.4842C147.274 40.9784 147.334 38.4055 144.874 36.1376C141.833 33.3194 139.052 33.2004 136.778 36.0781C130.837 43.6032 125.075 51.2696 119.104 58.765C116.45 62.0963 113.506 65.2045 110.554 68.2978C109.853 69.0265 108.608 69.6883 107.646 69.6437C95.7118 69.138 83.7772 68.506 71.8575 67.8814C71.2633 67.8602 71.1968 66.9201 71.5354 66.4314C72.8333 64.5584 74.0855 62.6994 75.4207 60.9065C84.4466 48.7779 93.4832 36.6653 102.521 24.5506C105.717 20.2678 107.64 14.5318 112.369 12.0436C115.153 10.5788 118.58 10.2996 122.041 10.1194C131.135 9.66585 139.887 11.3315 148.333 14.6405C153.916 16.8192 159.276 19.3697 163.935 23.2512C169.22 27.6533 172.463 35.9666 170.07 41.6401C168.616 45.083 165.955 48.1317 163.421 50.9945C155.618 59.8113 145.423 64.3323 134.066 66.5859C134.061 66.5869 134.056 66.5845 134.054 66.5801Z" fill="#FF4E26"/>
</svg>
