<svg width="157" height="82" viewBox="0 0 157 82" fill="none" xmlns="http://www.w3.org/2000/svg">
<path d="M125.96 16.4287C125.792 15.93 125.283 16.0676 124.903 16.1405C123.957 16.3234 123.021 16.5485 122.082 16.7622C117.639 17.7758 113.187 18.7327 108.602 18.7877C108.499 18.7893 108.394 18.765 108.188 18.7408C108.403 18.5805 108.523 18.4833 108.651 18.3975C110.61 17.0957 112.01 15.4604 112.367 13.001C112.642 11.1099 112.341 9.43414 111.134 7.97047C110.146 6.77396 108.95 5.80087 107.611 5.00913C107.495 4.94113 104.926 3.76404 104.363 3.60051C101.701 2.83144 99.0042 2.88001 96.2947 3.30422C95.8146 3.3787 95.3247 3.39489 94.8478 3.4807C94.4566 3.55194 94.0832 3.73328 93.6919 3.78347C92.6508 3.91786 91.5984 3.97776 90.5589 4.12186C87.8187 4.50559 85.0834 4.91199 82.3481 5.32486C82.0538 5.36857 81.6335 5.38962 81.6707 5.80573C81.682 5.92393 82.1379 6.08746 82.3885 6.08422C85.5409 6.05507 88.6933 6.00002 91.8458 5.95307C92.1723 5.94821 92.5005 5.95307 92.9822 5.95307C92.6977 6.39023 92.5183 6.72376 92.2855 7.01682C91.4933 8.01905 90.6608 8.99051 89.8864 10.0057C88.0822 12.3712 86.506 14.9116 84.4125 17.0553C84.1522 17.3224 83.921 17.3742 83.5977 17.371C80.4453 17.3402 77.2945 17.3095 74.1437 17.303C73.6231 17.303 73.0912 17.3856 72.5885 17.5183C72.3621 17.5782 72.1956 17.8583 72 18.0381C72.1778 18.2259 72.3266 18.4655 72.5416 18.5902C72.742 18.7068 73.0104 18.7197 73.2529 18.7521C75.6116 19.0597 77.9686 19.3868 80.3321 19.6572C83.6899 20.0409 87.0524 20.3696 90.4118 20.7452C91.2573 20.8407 92.0931 21.0285 93.0615 21.1969C92.8561 21.4333 92.7543 21.5758 92.6298 21.6891C91.3963 22.8047 90.1661 23.9251 88.918 25.0245C88.1324 25.7191 87.3143 26.3764 86.5141 27.0549C85.8529 27.6167 85.7591 28.24 86.2183 28.9557C86.3039 29.0884 86.3832 29.2244 86.4656 29.3588C86.8924 30.0534 87.573 30.1069 88.1 29.477C88.3118 29.2228 88.4718 28.9201 88.6966 28.6772C90.7901 26.4137 92.8852 24.1534 95.003 21.9126C95.1792 21.7248 95.5123 21.5936 95.7742 21.5936C96.8589 21.5936 97.9453 21.647 99.0301 21.6989C99.1885 21.7069 99.3776 21.7733 99.4924 21.8786C100.941 23.1965 102.376 24.5307 103.82 25.8551C105.252 27.1682 106.683 28.4845 108.137 29.7749C108.306 29.9271 108.609 29.9271 108.849 30C108.791 29.7685 108.733 29.5369 108.67 29.307C108.662 29.2746 108.626 29.252 108.605 29.2245C106.782 26.7845 104.957 24.3445 103.135 21.8996C103.07 21.8138 103.054 21.6908 102.997 21.5353C103.432 21.4981 103.815 21.4851 104.19 21.4301C106.806 21.0431 109.415 20.6043 112.037 20.2659C115.308 19.8434 118.552 19.3155 121.71 18.3311C122.895 17.9603 124.096 17.6398 125.274 17.2479C125.627 17.1297 126.139 16.9452 125.965 16.4238L125.96 16.4287ZM101.337 17.4957C100.503 17.6624 99.6702 17.8292 98.8377 17.9976C98.8086 17.9361 98.7795 17.8762 98.752 17.8146C99.1416 17.3742 99.5199 16.9241 99.9208 16.4934C101.172 15.1463 102.425 13.8025 103.689 12.4683C104.205 11.9227 104.218 11.3625 103.684 10.8687C103.025 10.255 102.422 10.2291 101.929 10.8557C100.64 12.4943 99.3906 14.1635 98.0956 15.7956C97.5201 16.521 96.8816 17.1977 96.2414 17.8713C96.0894 18.03 95.8194 18.1741 95.6109 18.1644C93.0227 18.0543 90.4344 17.9166 87.8494 17.7806C87.8042 17.779 87.7621 17.7321 87.6425 17.6624C87.9739 17.188 88.2859 16.7153 88.6222 16.2619C90.9275 13.1516 93.2361 10.0462 95.5446 6.9391C96.091 5.41067 97.4005 5.27305 98.7326 5.20343C100.705 5.10466 102.603 5.46734 104.434 6.18784C105.645 6.66224 106.808 7.21759 107.818 8.06276C108.964 9.02127 109.667 10.8314 109.149 12.0668C108.833 12.8165 108.256 13.4803 107.707 14.1036C106.014 16.0239 103.802 17.0083 101.339 17.4989L101.337 17.4957Z" fill="#FF4E26"/>
<path d="M1.21875 30V2.5H8.78125C10.7604 2.5 12.25 3.05208 13.25 4.15625C14.25 5.25 14.75 6.85417 14.75 8.96875V21.8438C14.75 24.4479 14.2917 26.4583 13.375 27.875C12.4688 29.2917 10.875 30 8.59375 30H1.21875ZM6.75 25.1406H7.70312C8.71354 25.1406 9.21875 24.651 9.21875 23.6719V9.48438C9.21875 8.56771 9.09375 7.97917 8.84375 7.71875C8.60417 7.44792 8.10938 7.3125 7.35938 7.3125H6.75V25.1406ZM15.93 30L18.5863 2.5H27.9144L30.5238 30H25.3206L24.93 25.5625H21.6175L21.2738 30H15.93ZM22.0081 21.1719H24.5081L23.305 7.1875H23.055L22.0081 21.1719ZM33.735 30L30.3444 2.48438H35.5788L37.5944 21.2031L39.3913 2.48438H44.6256L41.235 30H33.735ZM45.665 30V2.5H50.9775V30H45.665ZM52.845 30V2.5H60.4075C62.3867 2.5 63.8763 3.05208 64.8763 4.15625C65.8763 5.25 66.3763 6.85417 66.3763 8.96875V21.8438C66.3763 24.4479 65.9179 26.4583 65.0013 27.875C64.095 29.2917 62.5013 30 60.22 30H52.845ZM58.3763 25.1406H59.3294C60.3398 25.1406 60.845 24.651 60.845 23.6719V9.48438C60.845 8.56771 60.72 7.97917 60.47 7.71875C60.2304 7.44792 59.7356 7.3125 58.9856 7.3125H58.3763V25.1406ZM1.21875 62V34.5H6.65625V45.5156L9.21875 34.5H14.75L11.6719 47.0938L15.3906 62H9.6875L6.6875 48.6875V62H1.21875ZM15.2738 62L17.93 34.5H27.2581L29.8675 62H24.6644L24.2738 57.5625H20.9613L20.6175 62H15.2738ZM21.3519 53.1719H23.8519L22.6488 39.1875H22.3988L21.3519 53.1719ZM37.5944 62.25C35.3027 62.25 33.6152 61.6094 32.5319 60.3281C31.4485 59.0365 30.9069 57.1406 30.9069 54.6406V34.5H36.2506V54.4219C36.2506 54.8802 36.2767 55.3229 36.3288 55.75C36.3808 56.1667 36.5006 56.5104 36.6881 56.7812C36.8756 57.0521 37.1777 57.1875 37.5944 57.1875C38.0215 57.1875 38.3288 57.0573 38.5163 56.7969C38.7038 56.526 38.8183 56.1771 38.86 55.75C38.9121 55.3229 38.9381 54.8802 38.9381 54.4219V34.5H44.2819V54.6406C44.2819 57.1406 43.7402 59.0365 42.6569 60.3281C41.5735 61.6094 39.886 62.25 37.5944 62.25ZM45.3525 62V57L51.6494 39.5625H45.9619V34.5H57.4463V39.3125L51.04 56.9375H57.1806V62H45.3525ZM58.8763 62V34.5H64.3763V57.3125H70.0325V62H58.8763ZM70.525 62L73.1813 34.5H82.5094L85.1188 62H79.9156L79.525 57.5625H76.2125L75.8688 62H70.525ZM76.6031 53.1719H79.1031L77.9 39.1875H77.65L76.6031 53.1719ZM86.4863 62V34.5H94.9238C96.33 34.5 97.3925 34.8229 98.1113 35.4688C98.83 36.1042 99.3092 37 99.5488 38.1562C99.7988 39.3021 99.9238 40.651 99.9238 42.2031C99.9238 43.7031 99.731 44.901 99.3456 45.7969C98.9706 46.6927 98.2571 47.3125 97.205 47.6562C98.0696 47.8333 98.6738 48.2656 99.0175 48.9531C99.3717 49.6302 99.5488 50.5104 99.5488 51.5938V62H94.1269V51.2344C94.1269 50.4323 93.9602 49.9375 93.6269 49.75C93.304 49.5521 92.7779 49.4531 92.0488 49.4531V62H86.4863ZM92.08 44.6875H93.4081C94.1685 44.6875 94.5488 43.8594 94.5488 42.2031C94.5488 41.1302 94.4654 40.4271 94.2988 40.0938C94.1321 39.7604 93.8196 39.5938 93.3613 39.5938H92.08V44.6875ZM101.166 62V34.5H106.479V62H101.166ZM114.753 62.25C112.763 62.25 111.159 61.6302 109.94 60.3906C108.732 59.151 108.128 57.4167 108.128 55.1875V42.5C108.128 39.8333 108.654 37.7917 109.706 36.375C110.768 34.9583 112.492 34.25 114.878 34.25C116.18 34.25 117.336 34.4896 118.346 34.9688C119.367 35.4479 120.169 36.1667 120.753 37.125C121.336 38.0729 121.628 39.2708 121.628 40.7188V45.4688H116.159V41.4062C116.159 40.5833 116.055 40.0312 115.846 39.75C115.638 39.4583 115.315 39.3125 114.878 39.3125C114.367 39.3125 114.023 39.5 113.846 39.875C113.669 40.2396 113.581 40.7292 113.581 41.3438V55.1094C113.581 55.8698 113.69 56.4062 113.909 56.7188C114.138 57.0312 114.461 57.1875 114.878 57.1875C115.346 57.1875 115.674 56.9948 115.862 56.6094C116.06 56.224 116.159 55.724 116.159 55.1094V50.1562H121.69V55.3594C121.69 57.776 121.081 59.5312 119.862 60.625C118.643 61.7083 116.94 62.25 114.753 62.25Z" fill="black"/>
</svg>
