<svg width="95" height="23" viewBox="0 0 95 23" fill="none" xmlns="http://www.w3.org/2000/svg">
<g opacity="0.5" clip-path="url(#clip0_469_463)">
<path fill-rule="evenodd" clip-rule="evenodd" d="M57.3842 6.50804C55.867 6.50804 54.6716 6.81865 53.4763 7.48424C53.4763 4.14148 53.4763 1.03537 53.5989 0L46.2275 1.27203V1.87846L46.9785 1.99678C47.9899 2.17428 48.2964 2.72154 48.4956 4.00836C48.6795 6.5672 48.6182 20.0122 48.4956 22.2605C50.4573 22.6894 52.5261 22.9852 54.6103 22.9852C60.4032 22.9852 63.882 19.5093 63.882 14.0367C63.9433 9.67331 61.0928 6.50804 57.3842 6.50804ZM54.8555 21.7723C54.4111 21.7723 53.8441 21.7723 53.5376 21.654C53.415 20.1897 53.3537 13.9923 53.415 8.50482C54.0433 8.32733 54.4877 8.19421 55.0548 8.19421C57.4455 8.19421 58.7788 10.9305 58.7788 14.2733C58.7634 18.5479 57.1237 21.7723 54.8555 21.7723Z" fill="#AAAAAA"/>
<path fill-rule="evenodd" clip-rule="evenodd" d="M18.7329 0.414124H-0.5V1.39033L0.572754 1.50866C2.02863 1.68615 2.53436 2.54403 2.77956 4.5556C3.10139 8.32731 2.96346 15.2051 2.77956 18.4887C2.59566 20.5003 2.02863 21.4025 0.572754 21.5357L-0.5 21.7132V22.571H11.852V21.7132L10.534 21.5357C9.07816 21.4173 8.57243 20.5003 8.32723 18.4887C8.20463 17.0836 8.14333 14.8945 8.14333 12.1582L10.7946 12.2765C12.4343 12.2765 13.1853 13.5485 13.5071 15.3234H14.5186V7.78004H13.5071C13.1853 9.54017 12.4343 10.827 10.7946 10.827L8.14333 10.9453C8.14333 7.3511 8.26593 4.00834 8.32723 1.99676H12.1738C15.1316 1.99676 16.6487 3.75689 17.7215 6.92216L18.7942 6.61155L18.7329 0.414124Z" fill="#AAAAAA"/>
<path fill-rule="evenodd" clip-rule="evenodd" d="M24.9087 6.31573C30.3951 6.31573 33.1076 9.90995 33.1076 14.6579C33.1076 19.1543 30.0886 23 24.6022 23C19.1159 23 16.4033 19.4058 16.4033 14.6579C16.4033 10.0874 19.4837 6.31573 24.9087 6.31573ZM24.5869 7.3511C22.1962 7.3511 21.5679 10.5164 21.5679 14.5987C21.5679 18.681 22.6406 21.8463 24.8474 21.8463C27.3761 21.8463 28.0044 18.681 28.0044 14.5987C28.0044 10.5164 26.9316 7.3511 24.5869 7.3511Z" fill="#AAAAAA"/>
<path fill-rule="evenodd" clip-rule="evenodd" d="M65.3203 14.717C65.3203 10.3981 68.1554 6.25659 73.7031 6.25659C78.3006 6.25659 80.4461 9.54019 80.4461 13.8592H70.301C70.1784 17.7492 72.1246 20.6186 76.0938 20.6186C77.8562 20.6186 78.7451 20.1897 79.8178 19.465L80.2622 20.0122C79.1895 21.4765 76.7988 22.926 73.7031 22.926C68.8451 23 65.3203 19.5833 65.3203 14.717ZM70.3623 12.7646L75.4655 12.6463C75.4655 10.5164 75.1437 7.35113 73.2587 7.35113C71.435 7.35113 70.4849 10.3389 70.3623 12.7646Z" fill="#AAAAAA"/>
<path fill-rule="evenodd" clip-rule="evenodd" d="M93.503 7.17367C92.185 6.62641 90.4839 6.3158 88.461 6.3158C84.4305 6.3158 81.9019 8.62319 81.9019 11.3595C81.9019 14.0959 83.7256 15.2496 86.3768 16.1074C89.0894 17.0836 89.8403 17.8084 89.8403 19.0213C89.8403 20.2341 88.8288 21.4618 87.1277 21.4618C85.0435 21.4618 83.5264 20.3081 82.331 17.1428L81.5801 17.3203L81.7027 21.9499C83.0206 22.4971 85.4267 22.9261 87.4956 22.9261C91.7866 22.9261 94.4991 20.7962 94.4991 17.5717C94.4991 15.3827 93.3037 14.0959 90.4686 13.0753C87.4496 11.9216 86.3002 11.182 86.3002 9.79168C86.3002 8.40133 87.3117 7.48428 88.5683 7.48428C90.5299 7.48428 91.8479 8.63798 92.8593 11.5074L93.6102 11.3299L93.503 7.17367Z" fill="#AAAAAA"/>
<path fill-rule="evenodd" clip-rule="evenodd" d="M47.2982 6.74467C45.4745 5.7093 42.1949 6.19741 40.4326 10.0283L40.5552 6.31573L33.2451 7.72088V8.32731L33.996 8.44564C35.0075 8.56397 35.4519 9.05207 35.5132 10.4572C35.6971 13.0161 35.6358 17.3942 35.5132 19.6424C35.3906 20.9144 34.9462 21.5357 33.996 21.654L33.2451 21.7723V22.6302H43.3903V21.7723L42.0723 21.654C40.9996 21.5357 40.6165 20.9292 40.5552 19.6424C40.3713 17.6308 40.3713 13.6225 40.4326 11.1228C40.9996 10.398 43.3903 9.71766 45.5358 11.1228L47.2982 6.74467Z" fill="#AAAAAA"/>
</g>
<defs>
<clipPath id="clip0_469_463">
<rect width="95" height="23" fill="white"/>
</clipPath>
</defs>
</svg>
