<svg width="110" height="55" viewBox="0 0 110 55" fill="none" xmlns="http://www.w3.org/2000/svg">
<path d="M109.928 27.3496C109.585 26.334 108.548 26.6143 107.774 26.7626C105.847 27.1353 103.94 27.5936 102.027 28.0289C92.9763 30.0932 83.9063 32.042 74.5662 32.1542C74.3554 32.1574 74.1413 32.108 73.7231 32.0585C74.1611 31.7321 74.4048 31.5342 74.665 31.3594C78.6566 28.7082 81.5087 25.3777 82.2365 20.3687C82.7964 16.5171 82.1838 13.1041 79.7236 10.1232C77.7114 7.68626 75.2742 5.70442 72.5473 4.09192C72.3102 3.95342 67.0769 1.55609 65.9308 1.22304C60.5066 -0.343302 55.0132 -0.244375 49.4934 0.619585C48.5153 0.771273 47.5174 0.804249 46.5458 0.979019C45.7488 1.12411 44.988 1.49344 44.191 1.59566C42.0701 1.86936 39.926 1.99137 37.8084 2.28485C32.226 3.06637 26.6536 3.89406 21.0811 4.73494C20.4817 4.82397 19.6254 4.86684 19.7012 5.71432C19.7243 5.95504 20.653 6.28809 21.1635 6.2815C27.5856 6.22214 34.0078 6.11002 40.4299 6.01439C41.0952 6.0045 41.7638 6.01439 42.7452 6.01439C42.1656 6.90473 41.8 7.58403 41.3257 8.18089C39.712 10.2221 38.0159 12.2006 36.4383 14.2682C32.7629 19.0859 29.5518 24.2598 25.2868 28.6258C24.7566 29.1699 24.2856 29.2754 23.6269 29.2688C17.2048 29.2061 10.7859 29.1435 4.36707 29.1303C3.30659 29.1303 2.22305 29.2985 1.1988 29.5689C0.737725 29.6909 0.398503 30.2613 0 30.6274C0.362275 31.0099 0.665269 31.4979 1.10329 31.7518C1.51168 31.9893 2.05838 32.0157 2.5524 32.0816C7.35748 32.7081 12.1593 33.3742 16.9743 33.9249C23.8147 34.7065 30.665 35.3759 37.5087 36.1409C39.2311 36.3355 40.9338 36.718 42.9066 37.0609C42.4883 37.5424 42.2808 37.8326 42.0272 38.0634C39.5144 40.3354 37.0081 42.6173 34.4656 44.8563C32.865 46.271 31.1985 47.6098 29.5683 48.9915C28.2213 50.1357 28.0302 51.4053 28.9656 52.8628C29.1401 53.1332 29.3015 53.4102 29.4695 53.6839C30.3389 55.0986 31.7254 55.2074 32.7991 53.9246C33.2305 53.4069 33.5566 52.7903 34.0144 52.2956C38.2793 47.6857 42.5476 43.0823 46.862 38.5184C47.221 38.1359 47.8994 37.8688 48.4329 37.8688C50.6428 37.8688 52.856 37.9776 55.0659 38.0832C55.3886 38.0996 55.7739 38.2349 56.0078 38.4492C58.9587 41.1334 61.8832 43.8506 64.8242 46.548C67.7422 49.2223 70.6569 51.9032 73.6177 54.5314C73.9635 54.8414 74.5793 54.8414 75.0701 54.9897C74.9515 54.5182 74.8329 54.0466 74.7045 53.5784C74.688 53.5124 74.6156 53.4663 74.5727 53.4102C70.8578 48.4408 67.1395 43.4714 63.4278 38.4921C63.2961 38.3173 63.2632 38.0667 63.1479 37.7501C64.0338 37.6743 64.8144 37.6479 65.5784 37.5358C70.9072 36.7477 76.2228 35.854 81.5647 35.1648C88.2272 34.3042 94.8371 33.2292 101.269 31.2242C103.683 30.4691 106.13 29.8162 108.531 29.0182C109.249 28.7774 110.293 28.4015 109.937 27.3397L109.928 27.3496ZM59.7656 29.5227C58.0662 29.8623 56.3701 30.202 54.6739 30.5449C54.6147 30.4196 54.5554 30.2976 54.4994 30.1723C55.2931 29.2754 56.0638 28.3587 56.8805 27.4815C59.4296 24.7379 61.982 22.001 64.5575 19.2838C65.6081 18.1725 65.6344 17.0315 64.5476 16.0258C63.2039 14.776 61.9754 14.7232 60.971 15.9994C58.3461 19.3365 55.8003 22.7363 53.1623 26.0603C51.9898 27.5376 50.6889 28.9159 49.3847 30.2877C49.0751 30.6109 48.5251 30.9044 48.1003 30.8846C42.8275 30.6604 37.5548 30.3801 32.2886 30.1031C32.1964 30.0998 32.1108 30.0041 31.8671 29.8623C32.5422 28.8962 33.1778 27.9333 33.8629 27.01C38.5593 20.6753 43.2623 14.3506 47.9653 8.02261C49.0784 4.90971 51.7461 4.62942 54.4599 4.48762C58.4778 4.28647 62.3443 5.02513 66.0757 6.49254C68.5425 7.45872 70.9105 8.58979 72.9689 10.3111C75.3039 12.2633 76.7365 15.9499 75.6793 18.466C75.0371 19.9927 73.8614 21.3447 72.7416 22.6143C69.2934 26.5252 64.788 28.5301 59.7689 29.5293L59.7656 29.5227Z" fill="black"/>
</svg>
