<svg width="82" height="28" viewBox="0 0 82 28" fill="none" xmlns="http://www.w3.org/2000/svg">
<g opacity="0.5" clip-path="url(#clip0_469_528)">
<path d="M-0.5 6.44737H3.1171V21.5158H-0.5V27.4842H18.8533V21.5158H15.199V6.44737H18.8533V0H-0.5V6.44737Z" fill="#AAAAAA"/>
<path d="M48.647 21.5158V13.5948C48.647 8.54741 44.918 6.70531 40.2941 6.70531C37.0126 6.70531 34.5142 7.58952 32.3514 10.0579C32.2023 10.2421 32.0158 10.4632 31.7921 10.6474V6.48425H19.8594V12.4895H22.5815V21.5158H19.8594V27.5211H34.999V21.5158H32.1277V16.3211C32.1277 14.1106 33.8057 12.4895 36.0431 12.4895C37.7957 12.4895 39.1754 13.3369 39.1754 15.2158V21.479H36.3787V27.4843H51.1827V21.5895C51.1827 21.5527 51.1454 21.5158 51.1454 21.479H48.647V21.5158Z" fill="#AAAAAA"/>
<path d="M75.2725 19.7473H67.1434C67.1434 21.9579 65.5026 22.9894 63.6754 22.9894C60.1702 22.9894 59.8719 20.0789 59.8719 17.3158V17.2421C59.8719 14.4789 60.1329 11.5684 63.6754 11.5684C66.4349 11.5684 66.9196 13.9263 66.9942 16.1737L75.1607 15.2894C74.303 7.07365 66.0993 6.55786 64.0483 6.55786H63.6009C56.8514 6.55786 50.2139 9.83681 50.2139 17.2789C50.2139 18.8631 50.5122 20.2631 51.0715 21.4789H51.1088V21.5894C53.1225 26.0105 58.343 28 63.6009 28C67.8892 28 73.8928 26.9684 75.2352 20.4473L75.2725 19.7473Z" fill="#AAAAAA"/>
<path d="M78.0693 27.5947C79.964 27.5947 81.5 26.0772 81.5 24.2052C81.5 22.3333 79.964 20.8157 78.0693 20.8157C76.1746 20.8157 74.6387 22.3333 74.6387 24.2052C74.6387 26.0772 76.1746 27.5947 78.0693 27.5947Z" fill="#AAAAAA"/>
</g>
<defs>
<clipPath id="clip0_469_528">
<rect width="82" height="28" fill="white"/>
</clipPath>
</defs>
</svg>
