<svg width="24" height="24" viewBox="0 0 24 24" fill="none" xmlns="http://www.w3.org/2000/svg">
<g clip-path="url(#clip0_1168_333)">
<path fill-rule="evenodd" clip-rule="evenodd" d="M12.0044 0C18.6289 0 24.0087 5.37976 24.0087 12.0044C24.0087 18.6289 18.6289 24.0087 12.0044 24.0087C5.37976 24.0087 0 18.6202 0 12.0044C0 5.38847 5.37976 0 12.0044 0ZM12.0044 4.50054C9.96736 4.50054 9.71491 4.50054 8.91404 4.54407C8.11317 4.57889 7.57345 4.70947 7.09467 4.89227C6.59848 5.08379 6.18063 5.33624 5.76279 5.75408C5.34494 6.17193 5.09249 6.58977 4.90098 7.08596C4.71817 7.56474 4.58759 8.10446 4.55277 8.90533C4.51795 9.7062 4.50925 9.95865 4.50925 11.9956C4.50925 14.0326 4.50925 14.2851 4.55277 15.086C4.58759 15.8868 4.71817 16.4265 4.90098 16.9053C5.09249 17.4015 5.34494 17.8194 5.76279 18.2372C6.18063 18.6551 6.59848 18.9075 7.09467 19.099C7.57345 19.2818 8.11317 19.4124 8.91404 19.4472C9.71491 19.482 9.96736 19.4907 12.0044 19.4907C14.0413 19.4907 14.2938 19.4908 15.0947 19.4472C15.8955 19.4124 16.4353 19.2818 16.914 19.099C17.4102 18.9075 17.8281 18.6551 18.2459 18.2372C18.6638 17.8194 18.9162 17.4015 19.1077 16.9053C19.2905 16.4265 19.4211 15.8868 19.4559 15.086C19.4908 14.2851 19.4995 14.0326 19.4995 11.9956C19.4995 9.95865 19.4995 9.7062 19.4559 8.90533C19.4211 8.10446 19.2905 7.56474 19.1077 7.08596C18.9162 6.58977 18.6638 6.17193 18.2459 5.75408C17.8281 5.33624 17.4102 5.08379 16.914 4.89227C16.4353 4.70947 15.8955 4.57889 15.0947 4.54407C14.2938 4.50925 14.0413 4.50054 12.0044 4.50054ZM12.0044 5.84984C14.0065 5.84984 14.2416 5.84984 15.0337 5.89336C15.765 5.92818 16.1654 6.05005 16.4266 6.15452C16.7748 6.2938 17.0272 6.45049 17.2884 6.71164C17.5495 6.9728 17.7149 7.22524 17.8455 7.57345C17.9499 7.8346 18.0718 8.23504 18.1066 8.96627C18.1415 9.75843 18.1502 9.99347 18.1502 11.9956C18.1502 13.9978 18.1502 14.2329 18.1066 15.025C18.0718 15.7563 17.9499 16.1567 17.8455 16.4178C17.7062 16.7661 17.5495 17.0185 17.2884 17.2797C17.0272 17.5408 16.7748 17.7062 16.4266 17.8368C16.1654 17.9412 15.765 18.0631 15.0337 18.0979C14.2416 18.1328 14.0065 18.1415 12.0044 18.1415C10.0022 18.1415 9.76714 18.1415 8.97497 18.0979C8.24374 18.0631 7.84331 17.9412 7.58215 17.8368C7.23395 17.6975 6.9815 17.5408 6.72035 17.2797C6.45919 17.0185 6.2938 16.7661 6.16322 16.4178C6.05876 16.1567 5.93689 15.7563 5.90207 15.025C5.86725 14.2329 5.85854 13.9978 5.85854 11.9956C5.85854 9.99347 5.85854 9.75843 5.90207 8.96627C5.93689 8.23504 6.05876 7.8346 6.16322 7.57345C6.3025 7.22524 6.45919 6.9728 6.72035 6.71164C6.9815 6.45049 7.23395 6.28509 7.58215 6.15452C7.84331 6.05005 8.24374 5.92818 8.97497 5.89336C9.76714 5.85854 10.0022 5.84984 12.0044 5.84984ZM12.0044 8.14799C9.8803 8.14799 8.15669 9.8716 8.15669 11.9956C8.15669 14.1197 9.8803 15.8433 12.0044 15.8433C14.1284 15.8433 15.852 14.1197 15.852 11.9956C15.852 9.8716 14.1284 8.14799 12.0044 8.14799ZM12.0044 14.5027C10.6202 14.5027 9.50598 13.3798 9.50598 12.0044C9.50598 10.6289 10.6289 9.50598 12.0044 9.50598C13.3798 9.50598 14.5027 10.6289 14.5027 12.0044C14.5027 13.3798 13.3798 14.5027 12.0044 14.5027ZM16.9053 8C16.9053 8.49619 16.5049 8.89663 16.0087 8.89663C15.5125 8.89663 15.1121 8.49619 15.1121 8C15.1121 7.50381 15.5125 7.10337 16.0087 7.10337C16.5049 7.10337 16.9053 7.50381 16.9053 8Z" fill="black"/>
</g>
<defs>
<clipPath id="clip0_1168_333">
<rect width="24" height="24" fill="white"/>
</clipPath>
</defs>
</svg>
