<svg width="26" height="24" viewBox="0 0 26 24" fill="none" xmlns="http://www.w3.org/2000/svg">
<g clip-path="url(#clip0_1168_327)">
<path d="M13 0C5.8175 0 0 5.37 0 12C0 18.63 5.8175 24 13 24C20.1825 24 26 18.63 26 12C26 5.37 20.1825 0 13 0ZM9.31125 17.205H6.42688V9.18H9.31125V17.205ZM7.87312 8.085H7.84875C6.88188 8.085 6.25625 7.4625 6.25625 6.6975C6.25625 5.9325 6.89813 5.31 7.88938 5.31C8.88062 5.31 9.49 5.91 9.50625 6.6975C9.50625 7.4625 8.88062 8.085 7.87312 8.085ZM19.7356 17.205H16.8512V12.915C16.8512 11.835 16.4288 11.1 15.3806 11.1C14.5844 11.1 14.1131 11.595 13.9019 12.075C13.8288 12.2475 13.8044 12.4875 13.8044 12.72V17.205H10.9119C10.9119 17.205 10.9525 9.93 10.9119 9.18H13.8044V10.32C14.1862 9.7725 14.8769 8.9925 16.4125 8.9925C18.3138 8.9925 19.7356 10.14 19.7356 12.6075V17.205Z" fill="black"/>
</g>
<defs>
<clipPath id="clip0_1168_327">
<rect width="26" height="24" fill="white"/>
</clipPath>
</defs>
</svg>
