<svg width="132" height="20" viewBox="0 0 132 20" fill="none" xmlns="http://www.w3.org/2000/svg">
<g opacity="0.5" clip-path="url(#clip0_469_495)">
<path d="M4.02628 19.5194H-0.5V9.34692L4.02628 16.4124V19.5181V19.5194Z" fill="#AAAAAA"/>
<path d="M4.02628 14.4009L-0.5 7.21401V0.488342H4.80508L12.6591 12.9565V0.488342H17.1009V19.5194H11.904L4.02628 7.04993V14.3996V14.4009Z" fill="#AAAAAA"/>
<path d="M18.6104 19.5195V0.488403H31.685V4.34345H23.1353V8.03443H31.182V11.644H23.1353V15.6631H32.1879V19.5182H18.6104V19.5195Z" fill="#AAAAAA"/>
<path d="M37.4888 19.5194L32.5137 0.488281H36.9871L39.9017 11.8713L42.4137 0.488281H47.6105L50.5026 11.8713L53.1426 0.488281H57.6689L52.7031 19.5194H48.0091L45.1184 7.21265L42.1193 19.5194H37.4888Z" fill="#AAAAAA"/>
<path d="M59.6408 14.2187L56.5811 17.2844C56.5811 17.2844 58.9478 20 63.8767 20C68.436 20 71.2898 17.4627 71.2898 13.6929C71.2898 7.29152 62.2201 8.92061 62.2201 5.66372C62.2201 4.69608 63.0781 3.76591 64.8905 3.76591C66.8243 3.76591 68.4558 5.38596 68.4558 5.38596L71.3796 2.34998C71.3796 2.34998 69.1554 0 65.0409 0C60.3893 0 57.5381 2.60836 57.5381 5.94148C57.5381 12.6633 66.5325 10.6221 66.5325 14.1606C66.5325 15.539 65.3551 16.2625 63.878 16.2625C61.2974 16.2625 59.6421 14.2174 59.6421 14.2174L59.6408 14.2187Z" fill="#AAAAAA"/>
<path d="M72.5873 19.5194V0.488342H79.1873L83.736 12.8545L88.0497 0.488342H94.7144V19.5194H90.1881V6.06679L85.1589 19.5194H81.8695L76.9446 5.9221V19.5194H72.5859H72.5873Z" fill="#AAAAAA"/>
<path d="M102.848 0.488403L94.7129 19.5195H99.7421L101.191 15.7458H108.735L110.229 19.5195H117.389L121.482 12.8326L125.774 19.5195H131.5L124.493 9.47878L130.664 0.488403H125.222L121.624 6.40533L118.014 0.488403H112.314L118.609 9.47878L114.052 16.3L107.38 0.488403H102.848ZM105.015 5.62115L107.53 12.1362H102.501L105.015 5.62115Z" fill="#AAAAAA"/>
</g>
<defs>
<clipPath id="clip0_469_495">
<rect width="132" height="20" fill="white"/>
</clipPath>
</defs>
</svg>
