<svg width="59" height="59" viewBox="0 0 59 59" fill="none" xmlns="http://www.w3.org/2000/svg">
<path d="M34.9 32.86L41 38.98L38.48 41.5L32.38 35.4C30.68 36.55 28.83 37.13 26.81 37.13C24.11 37.13 21.79 36.17 19.87 34.25C17.95 32.33 17 30.02 17 27.32C17 24.62 17.96 22.3 19.88 20.38C21.8 18.46 24.11 17.5 26.82 17.5C29.53 17.5 31.84 18.46 33.76 20.38C35.68 22.3 36.64 24.61 36.64 27.32C36.64 29.35 36.06 31.2 34.91 32.86H34.9ZM33.34 27.32C33.34 25.51 32.7 23.97 31.43 22.69C30.16 21.41 28.62 20.77 26.81 20.77C25 20.77 23.46 21.41 22.18 22.69C20.9 23.97 20.26 25.51 20.26 27.32C20.26 29.13 20.9 30.67 22.18 31.94C23.46 33.21 25 33.85 26.81 33.85C28.62 33.85 30.16 33.21 31.43 31.94C32.7 30.67 33.34 29.13 33.34 27.32Z" fill="black"/>
</svg>
