<svg width="24" height="24" viewBox="0 0 24 24" fill="none" xmlns="http://www.w3.org/2000/svg">
<path d="M11.9998 0.000573179L12 0C5.37269 0 0 5.37257 0 11.9998C0 18.6269 5.37269 24 12 24C18.6273 24 24 18.6278 24 11.9998C24 5.37175 18.6279 0.000573179 11.9998 0.000573179ZM17.5031 17.3071C17.2876 17.6606 16.827 17.7714 16.4747 17.556C13.6567 15.8338 10.1099 15.4447 5.93286 16.3989C5.53032 16.4912 5.12909 16.2389 5.03738 15.8365C4.94526 15.434 5.19648 15.0328 5.6 14.9411C10.1711 13.896 14.0921 14.3458 17.2551 16.2785C17.6075 16.4949 17.7192 16.9546 17.5031 17.3071ZM18.9719 14.0402C18.7005 14.4805 18.1247 14.6186 17.685 14.3482C14.4601 12.3659 9.5426 11.7917 5.72741 12.9498C5.23259 13.0993 4.71001 12.8205 4.55984 12.3265C4.41081 11.8317 4.68979 11.3101 5.18371 11.1596C9.54178 9.83731 14.9595 10.4779 18.6637 12.7541C19.1036 13.0249 19.2426 13.601 18.9717 14.0403H18.9719V14.0402ZM19.0981 10.6378H19.098C15.2299 8.34058 8.84946 8.1294 5.15693 9.25013C4.56393 9.42995 3.93687 9.09521 3.75722 8.50221C3.57748 7.90906 3.91198 7.28241 4.5053 7.1021C8.74416 5.81531 15.7907 6.06391 20.2435 8.70733C20.7768 9.02381 20.9518 9.71269 20.6357 10.2453C20.3204 10.7786 19.6297 10.9544 19.0981 10.6378Z" fill="black"/>
</svg>
