<svg width="24" height="24" viewBox="0 0 24 24" fill="none" xmlns="http://www.w3.org/2000/svg">
<g clip-path="url(#clip0_1168_330)">
<path d="M12.975 11.7302L17.205 17.7827H15.4725L12.015 12.8477L11.5125 12.1202L7.47754 6.34521H9.21004L12.465 11.0027L12.975 11.7302Z" fill="black"/>
<path d="M12 0C5.37 0 0 5.37 0 12C0 18.63 5.37 24 12 24C18.63 24 24 18.63 24 12C24 5.37 18.63 0 12 0ZM14.94 18.5925L11.445 13.5075L7.065 18.5925H5.94L10.9425 12.78L5.94 5.4975H9.7575L13.065 10.3125L17.205 5.4975H18.3375L13.5675 11.0475L18.7575 18.5925H14.94Z" fill="black"/>
</g>
<defs>
<clipPath id="clip0_1168_330">
<rect width="24" height="24" fill="white"/>
</clipPath>
</defs>
</svg>
