<svg width="109" height="39" viewBox="0 0 109 39" fill="none" xmlns="http://www.w3.org/2000/svg">
<g opacity="0.5" clip-path="url(#clip0_469_476)">
<path d="M101.48 0L95.202 14.7475H102.178L108.5 0H101.48ZM93.1092 20.0328C93.0801 22.0645 94.7515 23.741 96.8297 23.7694H96.9315C99.1405 23.7694 100.914 22.0219 100.914 19.8765C100.943 17.8448 99.2859 16.1825 97.2076 16.1541H97.0913C94.8823 16.1541 93.1092 17.9016 93.1092 20.0612V20.0328ZM86.7872 15.3585C86.7872 13.5683 85.3048 12.1049 83.4591 12.1049C81.6133 12.1049 80.1309 13.5541 80.1309 15.3585C80.1309 17.1628 81.6133 18.612 83.4591 18.612C85.3048 18.612 86.7872 17.1628 86.7872 15.3585ZM67.9811 15.3585C67.9811 13.5683 66.4987 12.1049 64.6529 12.1049C62.8072 12.1049 61.3248 13.5541 61.3248 15.3585C61.3248 17.1628 62.8072 18.612 64.6529 18.612C66.4987 18.612 67.9811 17.1628 67.9811 15.3585ZM27.6365 18.7115C25.7472 18.7115 24.2067 17.2055 24.2067 15.3585C24.2067 13.5115 25.7472 12.0055 27.6365 12.0055C29.5259 12.0055 31.0664 13.5115 31.0664 15.3585C31.0955 17.1913 29.5985 18.6831 27.7237 18.7115H27.6365ZM-0.5 7.21749L6.6068 23.6273L4.0344 29.5377H10.2837L19.7595 7.23169H13.5392L9.68787 16.7792L5.88013 7.23169H-0.5V7.21749ZM73.5619 15.3727C73.5619 20.1749 69.5797 24.082 64.6529 24.082C59.7261 24.082 55.744 20.1891 55.744 15.3727C55.744 10.5563 59.7261 6.66339 64.6529 6.66339C69.5797 6.66339 73.5619 10.5563 73.5619 15.3727C73.5619 15.3632 73.5619 15.3632 73.5619 15.3727ZM92.368 15.3727C92.368 20.1749 88.3859 24.082 83.4591 24.082C78.5323 24.082 74.5501 20.1891 74.5501 15.3727C74.5501 10.5563 78.5323 6.66339 83.4591 6.66339C88.3859 6.66339 92.368 10.5563 92.368 15.3727C92.368 15.3632 92.368 15.3632 92.368 15.3727ZM38.5801 0V23.4852H44.4516V14.8186C44.4516 13.1279 45.2945 12.1191 46.6171 12.1191C47.9396 12.1191 48.6808 13 48.6808 14.6197V23.4852H54.5523V13.2557C54.5523 9.36284 52.3723 6.81967 48.8552 6.81967C47.1548 6.74863 45.5271 7.48743 44.4661 8.79453V0H38.5801ZM30.9356 7.21749V8.7377C29.802 7.47322 28.1597 6.77705 26.4448 6.83388C21.8959 6.83388 18.466 10.7268 18.466 15.3727C18.466 20.0186 21.8087 23.9257 26.4448 23.9257C28.1743 23.9967 29.8311 23.2721 30.9356 21.9792V23.4995H36.6181V7.21749H30.9356Z" fill="#AAAAAA"/>
<path d="M60.641 29.8929C61.5275 29.8645 62.3705 30.2196 62.9518 30.8732C63.5767 31.7257 63.8674 32.7628 63.7802 33.8V38.7584H60.5393V34.141C60.5393 33.3737 60.1614 32.9901 59.4493 32.9901C59.115 32.9759 58.7807 33.1038 58.5627 33.3595C58.3447 33.6437 58.243 33.9989 58.2575 34.3541V38.7726H55.0166V30.177H58.2575V31.0011C58.8098 30.2623 59.7109 29.836 60.641 29.8929Z" fill="#AAAAAA"/>
<path d="M67.9671 35.5334C68.3305 36.1443 69.0426 36.4853 69.7547 36.3858C70.307 36.3858 70.8447 36.2011 71.2662 35.8459L73.3881 37.5935C72.3998 38.5596 71.0337 39.0711 69.6385 38.9858C68.3014 39.0427 67.0079 38.5738 66.0197 37.6929C65.1331 36.8547 64.6535 35.6754 64.6826 34.4678C64.6099 32.0099 66.5865 29.964 69.0862 29.8929H69.3187C71.7749 29.8219 73.8241 31.7115 73.9113 34.1126V34.411C73.9113 34.7804 73.8677 35.164 73.7805 35.5334H67.9671ZM67.9671 33.4875H70.9174C70.7575 32.8339 70.1181 32.4077 69.4495 32.4929C68.7665 32.4361 68.1415 32.8481 67.9235 33.4875H67.9671Z" fill="#AAAAAA"/>
<path d="M84.6497 30.1628H88.0795L85.5362 38.7585H82.2371L81.1471 34.7093L80.0571 38.7585H76.7581L74.2002 30.1628H77.6301L78.6474 34.9224L79.9845 30.1628H82.4406L83.7777 34.9224L84.6497 30.1628Z" fill="#AAAAAA"/>
<path d="M91.7583 32.6919C91.7583 32.8339 91.8601 32.9334 92.0926 33.0186C92.3542 33.1039 92.6303 33.1749 92.9065 33.2033C93.2698 33.246 93.6186 33.3312 93.9529 33.4307C94.3162 33.5443 94.6795 33.6864 95.0138 33.8569C95.3626 34.0416 95.6387 34.3257 95.8277 34.6809C96.3073 35.5476 96.3073 36.599 95.8277 37.4656C95.5951 37.8634 95.2463 38.1902 94.8249 38.4033C94.4325 38.6022 94.011 38.7585 93.575 38.858C93.139 38.9574 92.6885 39 92.2379 39C90.1306 39 88.7499 38.3181 88.125 36.9541L90.959 35.7181C91.1189 36.258 91.6275 36.6274 92.2089 36.5847C92.6013 36.5847 92.7902 36.4569 92.7902 36.2011C92.7902 35.9454 92.6449 35.9312 92.3542 35.8317L91.2061 35.5476C90.7846 35.4481 90.3631 35.3203 89.9707 35.1498C89.5493 34.9793 89.1714 34.6809 88.9098 34.3257C88.6337 33.8853 88.5174 33.3738 88.5465 32.8766C88.5029 32.0099 88.9243 31.1858 89.651 30.6886C90.3922 30.1629 91.2787 29.8929 92.1943 29.9072C93.8221 29.7367 95.3626 30.6175 95.9875 32.0951L93.3279 33.047C93.1971 32.6208 92.8047 32.3225 92.3397 32.3225C91.9327 32.3225 91.7583 32.4929 91.7583 32.6919Z" fill="#AAAAAA"/>
</g>
<defs>
<clipPath id="clip0_469_476">
<rect width="109" height="39" fill="white"/>
</clipPath>
</defs>
</svg>
