<svg width="29" height="20" viewBox="0 0 29 20" fill="none" xmlns="http://www.w3.org/2000/svg">
<path d="M28.4012 3.13877C28.2402 2.52898 27.9167 1.97152 27.4649 1.52459C27.0125 1.07766 26.4476 0.756217 25.8278 0.593358C22.0685 0.158178 18.2848 -0.0377874 14.5 0.00599769C10.7152 -0.0377874 6.93149 0.158178 3.17279 0.593358C2.55295 0.755683 1.98803 1.07713 1.53566 1.52459C1.08329 1.97152 0.760323 2.52898 0.599383 3.13877C0.187247 5.40651 -0.0128402 7.70576 0.000752685 10.0093C-0.0139276 12.3246 0.186159 14.6361 0.598839 16.915C0.768478 17.5152 1.09525 18.0609 1.54708 18.4982C1.99891 18.9356 2.55893 19.249 3.17279 19.4065C6.93149 19.8417 10.7152 20.0382 14.5 19.9939C18.2848 20.0382 22.0685 19.8417 25.8272 19.4065C26.4405 19.2485 27.0011 18.9356 27.4529 18.4982C27.9047 18.0609 28.2315 17.5152 28.4012 16.915C28.8138 14.6356 29.0139 12.324 28.9992 10.0093C29.0134 7.7063 28.8128 5.40651 28.4012 3.13877ZM11.5275 14.2628V5.79097L19.1216 10.0093L11.5275 14.2452V14.2628Z" fill="black"/>
</svg>
